<?xml version="1.0" encoding="utf-8"?>
<!-- Generator: Adobe Illustrator 16.0.0, SVG Export Plug-In . SVG Version: 6.00 Build 0)  -->
<!DOCTYPE svg PUBLIC "-//W3C//DTD SVG 1.1//EN" "http://www.w3.org/Graphics/SVG/1.1/DTD/svg11.dtd">
<svg version="1.1" id="Layer_1" xmlns="http://www.w3.org/2000/svg" xmlns:xlink="http://www.w3.org/1999/xlink" x="0px" y="0px"
	 width="600px" height="600px" viewBox="0 0 600 600" enable-background="new 0 0 600 600" xml:space="preserve">
<path d="M84.296,204.884c-37.743,44.323-73.929,99.292-74.293,140.374c-0.142,15.458,4.793,28.954,16.631,39.175
	c17.035,14.72,35.806,19.912,54.484,19.94c27.295,0.037,54.398-10.974,75.621-19.464c35.739-14.294,430.815-185.861,430.815-185.861
	c3.813-1.91,3.098-4.29-1.671-3.104c-1.925,0.484-430.104,116.519-430.104,116.519c-8.266,2.32-16.708,3.521-24.919,3.569
	c-32.907,0.194-62.188-18.072-61.952-56.562C69,244.41,73.611,226.246,84.296,204.884L84.296,204.884z"/>
</svg>
